<svg width="47" height="80" viewBox="0 0 47 80" fill="none" xmlns="http://www.w3.org/2000/svg">
<path d="M22.074 66.858C19.318 66.858 16.51 66.546 13.65 65.922C10.842 65.298 8.398 64.362 6.318 63.114C4.654 62.23 3.614 61.138 3.198 59.838C2.782 58.486 2.834 57.238 3.354 56.094C3.926 54.95 4.836 54.144 6.084 53.676C7.332 53.156 8.762 53.286 10.374 54.066C12.402 55.054 14.326 55.756 16.146 56.172C17.966 56.588 19.786 56.796 21.606 56.796C27.95 56.796 31.122 54.43 31.122 49.698C31.122 45.33 28.158 43.146 22.23 43.146H17.628C15.912 43.146 14.586 42.73 13.65 41.898C12.766 41.014 12.324 39.818 12.324 38.31C12.324 36.75 12.766 35.554 13.65 34.722C14.586 33.838 15.912 33.396 17.628 33.396H21.06C23.66 33.396 25.714 32.798 27.222 31.602C28.73 30.406 29.484 28.742 29.484 26.61C29.484 22.346 26.702 20.214 21.138 20.214C19.422 20.214 17.758 20.422 16.146 20.838C14.586 21.202 12.87 21.878 10.998 22.866C9.542 23.594 8.242 23.724 7.098 23.256C5.954 22.788 5.096 21.982 4.524 20.838C4.004 19.694 3.9 18.498 4.212 17.25C4.524 16.002 5.434 14.962 6.942 14.13C11.466 11.478 16.562 10.152 22.23 10.152C28.158 10.152 32.786 11.478 36.114 14.13C39.442 16.782 41.106 20.422 41.106 25.05C41.106 27.91 40.378 30.432 38.922 32.616C37.466 34.8 35.438 36.386 32.838 37.374C35.958 38.258 38.376 39.896 40.092 42.288C41.86 44.628 42.744 47.462 42.744 50.79C42.744 55.782 40.898 59.708 37.206 62.568C33.514 65.428 28.47 66.858 22.074 66.858Z" fill="#E3E3E3"/>
</svg>
