<svg width="47" height="80" viewBox="0 0 47 80" fill="none" xmlns="http://www.w3.org/2000/svg">
<path d="M31.98 66.702C30.056 66.702 28.574 66.182 27.534 65.142C26.494 64.102 25.974 62.594 25.974 60.618V56.172H8.502C6.578 56.172 5.044 55.756 3.9 54.924C2.756 54.04 2.184 52.714 2.184 50.946C2.184 49.906 2.418 48.866 2.886 47.826C3.354 46.734 4.186 45.356 5.382 43.692L25.584 14.286C26.468 12.934 27.43 11.946 28.47 11.322C29.562 10.646 30.836 10.308 32.292 10.308C34.008 10.308 35.36 10.828 36.348 11.868C37.336 12.856 37.83 14.364 37.83 16.392V46.656H40.716C44.2 46.656 45.942 48.242 45.942 51.414C45.942 54.586 44.2 56.172 40.716 56.172H37.83V60.618C37.83 62.594 37.31 64.102 36.27 65.142C35.282 66.182 33.852 66.702 31.98 66.702ZM25.974 46.656V28.482L13.65 46.656H25.974Z" fill="#E3E3E3"/>
</svg>
