<svg width="47" height="80" viewBox="0 0 47 80" fill="none" xmlns="http://www.w3.org/2000/svg">
<path d="M10.764 66C8.788 66 7.358 65.558 6.474 64.674C5.59 63.738 5.148 62.386 5.148 60.618C5.148 59.474 5.434 58.408 6.006 57.42C6.578 56.432 7.358 55.418 8.346 54.378L23.01 38.934C25.194 36.594 26.754 34.514 27.69 32.694C28.678 30.874 29.172 29.054 29.172 27.234C29.172 22.554 26.286 20.214 20.514 20.214C19.006 20.214 17.446 20.422 15.834 20.838C14.274 21.254 12.636 21.982 10.92 23.022C9.516 23.854 8.216 24.036 7.02 23.568C5.876 23.1 5.018 22.294 4.446 21.15C3.926 20.006 3.796 18.81 4.056 17.562C4.368 16.262 5.226 15.196 6.63 14.364C8.918 12.96 11.414 11.92 14.118 11.244C16.822 10.516 19.5 10.152 22.152 10.152C28.288 10.152 32.968 11.53 36.192 14.286C39.468 16.99 41.106 20.864 41.106 25.908C41.106 29.236 40.326 32.434 38.766 35.502C37.258 38.518 34.762 41.794 31.278 45.33L20.67 56.094H38.766C42.146 56.094 43.836 57.732 43.836 61.008C43.836 64.336 42.146 66 38.766 66H10.764Z" fill="#E3E3E3"/>
</svg>
